# File created by Blade
# Date/Time:  Fri Jan 16 17:52:57 2015
#---------------------------------------------------------
:version 1.10
:name HOM
:units
  mass 1.0
  length 1.000000
  angle deg
:documentation
     Acclaim Skeleton File
:root
   axis xyz
   order TX TY TZ RX RY RZ
   position 0.000000 0.000000 0.000000
   orientation 0 0 0
:bonedata
   begin
      id 1
      name Spine_dum
      direction 0.000000 1.000000 0.000000
      length 7.170412
      axis 0.0 0.0 0.0 xyz
   end
   begin
      id 2
      name LeftUpLeg_dum
      direction 1.000000 0.000000 0.000000
      length 4.318350
      axis 0.0 0.0 0.0 xyz
   end
   begin
      id 3
      name RightUpLeg_dum
      direction -1.000000 0.000000 0.000000
      length 4.318350
      axis 0.0 0.0 0.0 xyz
   end
   begin
      id 4
      name Spine
      direction 0.000000 1.000000 0.000000
      length 0.000000
      axis 0.0 0.0 0.0 xyz
      dof rx ry rz
   end
   begin
      id 5
      name Spine_dum1
      direction 0.000000 1.000000 0.000000
      length 14.276153
      axis 0.0 0.0 0.0 xyz
   end
   begin
      id 6
      name Spine_dum2
      direction 0.000000 1.000000 0.000000
      length 10.718243
      axis 0.0 0.0 0.0 xyz
   end
   begin
      id 7
      name Spine_dum3
      direction 0.000000 1.000000 0.000000
      length 10.718243
      axis 0.0 0.0 0.0 xyz
   end
   begin
      id 8
      name Head
      direction 0.000000 1.000000 0.000000
      length 4.527550
      axis 0.0 0.0 0.0 xyz
      dof rx ry rz
   end
   begin
      id 9
      name LeftShoulder
      direction 1.000000 0.000000 0.000000
      length 7.058872
      axis 0.0 0.0 -90.0 xyz
      dof rx ry rz
   end
   begin
      id 10
      name LeftArm
      direction 1.000000 0.000000 0.000000
      length 10.955525
      axis 0.0 0.0 -90.0 xyz
      dof rx ry rz
   end
   begin
      id 11
      name LeftForeArm
      direction 1.000000 0.000000 0.000000
      length 8.193716
      axis 0.0 0.0 -90.0 xyz
      dof ry rz rx
   end
   begin
      id 12
      name LeftHand
      direction 0.000000 0.000000 0.000000
      length 0.000000
      axis 0.0 0.0 -90.0 xyz
      dof rx ry rz
   end
   begin
      id 13
      name LeftHand_dum1
      direction 0.000000 0.000000 0.000000
      length 0.000000
      axis 0.0 0.0 -90.0 xyz
   end
   begin
      id 14
      name LeftHand_dum2
      direction 1.000000 0.000000 0.000000
      length 3.937000
      axis 0.0 0.0 -90.0 xyz
   end
   begin
      id 15
      name LeftHandThumb1
      direction 0.000000 0.000000 1.000000
      length 3.937000
      axis 0.0 0.0 -90.0 xyz
      dof rx rz ry
   end
   begin
      id 16
      name RightShoulder
      direction -1.000000 0.000000 0.000000
      length 7.058872
      axis 0.0 0.0 90.0 xyz
      dof rx ry rz
   end
   begin
      id 17
      name RightArm
      direction -1.000000 0.000000 0.000000
      length 10.955525
      axis 0.0 0.0 90.0 xyz
      dof rx ry rz
   end
   begin
      id 18
      name RightForeArm
      direction -1.000000 0.000000 0.000000
      length 8.193716
      axis 0.0 0.0 90.0 xyz
      dof ry rz rx
   end
   begin
      id 19
      name RightHand
      direction 0.000000 0.000000 0.000000
      length 0.000000
      axis 0.0 0.0 90.0 xyz
      dof rx ry rz
   end
   begin
      id 20
      name RightHand_dum1
      direction 0.000000 0.000000 0.000000
      length 0.000000
      axis 0.0 0.0 90.0 xyz
   end
   begin
      id 21
      name RightHand_dum2
      direction -1.000000 0.000000 0.000000
      length 3.937000
      axis 0.0 0.0 90.0 xyz
   end
   begin
      id 22
      name RightHandThumb1
      direction 0.000000 0.000000 1.000000
      length 3.937000
      axis 0.0 0.0 90.0 xyz
      dof rx rz ry
   end
   begin
      id 23
      name LeftUpLeg
      direction 0.000000 -1.000000 0.000000
      length 17.323638
      axis 0.0 0.0 0.0 xyz
      dof rx ry rz
   end
   begin
      id 24
      name LeftLeg
      direction 0.000000 -1.000000 0.000000
      length 16.270368
      axis 0.0 0.0 0.0 xyz
      dof rx ry rz
   end
   begin
      id 25
      name LeftFoot
      direction 0.000000 -0.258819 0.965926
      length 4.922846
      axis 15.0 0.0 0.0 xyz
      dof rx ry rz
   end
   begin
      id 26
      name LeftToeBase
      direction 0.000000 0.000000 1.000000
      length 2.952750
      axis 0.0 0.0 0.0 xyz
      dof rx ry rz
   end
   begin
      id 27
      name RightUpLeg
      direction 0.000000 -1.000000 0.000000
      length 17.323638
      axis 0.0 0.0 0.0 xyz
      dof rx ry rz
   end
   begin
      id 28
      name RightLeg
      direction 0.000000 -1.000000 0.000000
      length 16.270368
      axis 0.0 0.0 0.0 xyz
      dof rx ry rz
   end
   begin
      id 29
      name RightFoot
      direction 0.000000 -0.258819 0.965926
      length 4.922846
      axis 15.0 0.0 0.0 xyz
      dof rx ry rz
   end
   begin
      id 30
      name RightToeBase
      direction 0.000000 0.000000 1.000000
      length 2.952750
      axis 0.0 0.0 0.0 xyz
      dof rx ry rz
   end
:hierarchy
   begin
      root Spine_dum LeftUpLeg_dum RightUpLeg_dum
      Spine_dum Spine
      LeftUpLeg_dum LeftUpLeg
      RightUpLeg_dum RightUpLeg
      Spine Spine_dum1 Spine_dum2 Spine_dum3
      Spine_dum1 Head
      Spine_dum2 LeftShoulder
      Spine_dum3 RightShoulder
      LeftShoulder LeftArm
      LeftArm LeftForeArm
      LeftForeArm LeftHand
      LeftHand LeftHand_dum1 LeftHand_dum2
      LeftHand_dum1 LeftHandThumb1
      RightShoulder RightArm
      RightArm RightForeArm
      RightForeArm RightHand
      RightHand RightHand_dum1 RightHand_dum2
      RightHand_dum1 RightHandThumb1
      LeftUpLeg LeftLeg
      LeftLeg LeftFoot
      LeftFoot LeftToeBase
      RightUpLeg RightLeg
      RightLeg RightFoot
      RightFoot RightToeBase
   end

# File created by Blade
# Date/Time:  Fri Jan 16 17:53:05 2015
# Frame Rate: 120.000 fps
#------------------------------------------------------
:FULLY-SPECIFIED
:DEGREES
1376
root -3.151161 35.350009 -11.026503 -3.127577 6.561305 -9.599246
Spine 1.458218 -10.790711 10.098353
Head 3.055974 -0.314410 -4.612646
LeftShoulder -21.867925 15.038222 -8.075899
LeftArm 25.375295 -19.395629 -67.726605
LeftForeArm 3.565628 -0.000000 125.409937
LeftHand 2.507268 -0.000000 13.767266
LeftHandThumb1 -26.253704 0.000000 33.147579
RightShoulder -5.823582 -5.832900 -0.846791
RightArm 2.866634 -24.096985 72.542227
RightForeArm -16.466953 -0.000000 22.054045
RightHand 0.262202 -0.000000 -2.212784
RightHandThumb1 -24.326973 -0.000000 -32.862282
LeftUpLeg 10.948609 -2.486906 -1.747917
LeftLeg -7.991705 -0.000000 0.000000
LeftFoot -14.536787 29.466850 -4.185531
LeftToeBase 18.647630 -0.000000 -0.000000
RightUpLeg -8.532293 15.122874 7.607788
RightLeg 43.111726 -0.000000 -0.000000
RightFoot -18.248821 -20.250636 11.306789
RightToeBase -2.350837 -0.000000 0.000000
1377
root -3.160473 35.350729 -11.027221 -3.144991 6.510831 -9.641191
Spine 1.462594 -10.767981 10.152976
Head 3.032516 -0.303445 -4.609147
LeftShoulder -21.815148 15.007402 -8.011996
LeftArm 25.323940 -19.272799 -67.762392
LeftForeArm 3.736523 -0.000000 125.424272
LeftHand 2.287102 -0.000000 13.803601
LeftHandThumb1 -26.253704 0.000000 33.147579
RightShoulder -5.832695 -5.856301 -0.846274
RightArm 2.911560 -24.102684 72.543232
RightForeArm -16.476593 0.000000 22.052627
RightHand 0.284341 -0.000000 -2.227559
RightHandThumb1 -24.326973 -0.000000 -32.862282
LeftUpLeg 10.972325 -2.246108 -1.666153
LeftLeg -8.011047 -0.000000 0.000000
LeftFoot -14.520033 29.295944 -4.105668
LeftToeBase 18.629093 -0.000000 -0.000000
RightUpLeg -8.157281 15.203010 7.792182
RightLeg 41.354090 -0.000000 -0.000000
RightFoot -18.475259 -19.981319 11.395754
RightToeBase -2.580110 -0.000000 0.000000
1378
root -3.166095 35.351766 -11.026860 -3.159549 6.456428 -9.660095
Spine 1.451103 -10.737738 10.195886
Head 3.035361 -0.265282 -4.628039
LeftShoulder -21.776242 15.066174 -8.041814
LeftArm 25.397020 -19.203700 -67.713890
LeftForeArm 3.633143 -0.000000 125.391181
LeftHand 2.121245 -0.000000 14.339329
LeftHandThumb1 -26.253704 0.000000 33.147579
RightShoulder -5.840065 -5.883377 -0.858554
RightArm 2.943394 -24.113993 72.555374
RightForeArm -16.483074 0.000000 22.030476
RightHand 0.336642 -0.000000 -2.179425
RightHandThumb1 -24.326973 -0.000000 -32.862282
LeftUpLeg 11.015059 -2.177557 -1.639280
LeftLeg -8.062998 -0.000000 0.000000
LeftFoot -14.524584 29.362328 -4.071234
LeftToeBase 18.789336 -0.000000 -0.000000
RightUpLeg -7.774403 15.365185 7.951471
RightLeg 39.646775 -0.000000 -0.000000
RightFoot -18.723898 -19.810739 11.454944
RightToeBase -2.641553 -0.000000 0.000000
1379
root -3.172307 35.352296 -11.029591 -3.170176 6.440289 -9.663178
Spine 1.450907 -10.735742 10.212950
Head 3.001089 -0.247644 -4.633766
LeftShoulder -21.714256 15.045715 -8.020000
LeftArm 25.365801 -19.148176 -67.689034
LeftForeArm 3.775224 -0.000000 125.341824
LeftHand 2.246050 -0.000000 13.890458
LeftHandThumb1 -26.253704 0.000000 33.147579
RightShoulder -5.848547 -5.909573 -0.866493
RightArm 2.974917 -24.117385 72.581353
RightForeArm -16.552196 -0.000000 22.014201
RightHand 0.381586 -0.000000 -1.786341
RightHandThumb1 -24.326973 -0.000000 -32.862282
LeftUpLeg 11.031026 -2.166520 -1.631812
LeftLeg -8.086745 -0.000000 0.000000
LeftFoot -14.522248 29.408171 -4.080804
LeftToeBase 18.842241 -0.000000 -0.000000
RightUpLeg -7.418891 15.499480 8.069333
RightLeg 38.024296 -0.000000 -0.000000
RightFoot -18.898989 -19.508743 11.603614
RightToeBase -3.040204 -0.000000 0.000000
1380
root -3.180028 35.354869 -11.029661 -3.191253 6.427932 -9.687279
Spine 1.452292 -10.744611 10.251609
Head 2.973473 -0.221960 -4.641521
LeftShoulder -21.656785 15.010351 -8.000699
LeftArm 25.314796 -19.106499 -67.667238
LeftForeArm 3.855546 -0.000000 125.296736
LeftHand 2.297572 -0.000000 13.752350
LeftHandThumb1 -26.253704 0.000000 33.147579
RightShoulder -5.852875 -5.957220 -0.860436
RightArm 3.028386 -24.150186 72.583252
RightForeArm -16.464495 -0.000000 21.968267
RightHand 0.436903 -0.000000 -1.985119
RightHandThumb1 -24.326973 -0.000000 -32.862282
LeftUpLeg 11.057671 -2.112494 -1.596503
LeftLeg -8.107694 -0.000000 0.000000
LeftFoot -14.514130 29.415456 -4.077642
LeftToeBase 18.818706 -0.000000 -0.000000
RightUpLeg -7.021544 15.749636 8.226351
RightLeg 36.400304 -0.000000 -0.000000
RightFoot -19.142853 -19.420483 11.823706
RightToeBase -2.863683 -0.000000 0.000000
1381
root -3.186029 35.357566 -11.029165 -3.230499 6.431317 -9.712655
Spine 1.480434 -10.786422 10.293668
Head 2.914104 -0.192628 -4.654859
LeftShoulder -21.637039 14.984532 -7.990666
LeftArm 25.293744 -19.009742 -67.670159
LeftForeArm 3.921086 0.000000 125.263804
LeftHand 2.207293 -0.000000 13.899033
LeftHandThumb1 -26.253704 0.000000 33.147579
RightShoulder -5.830816 -5.964432 -0.867637
RightArm 3.026399 -24.194799 72.608335
RightForeArm -16.406029 -0.000000 21.943370
RightHand 0.411010 0.000000 -2.100140
RightHandThumb1 -24.326973 -0.000000 -32.862282
LeftUpLeg 11.097025 -2.044942 -1.561085
LeftLeg -8.119574 -0.000000 0.000000
LeftFoot -14.499104 29.396817 -4.060274
LeftToeBase 18.808940 -0.000000 -0.000000
RightUpLeg -6.599655 15.983975 8.365885
RightLeg 34.799269 -0.000000 -0.000000
RightFoot -19.268962 -19.342765 11.975789
RightToeBase -2.905143 -0.000000 0.000000
1382
root -3.191281 35.360131 -11.027979 -3.287943 6.450567 -9.730936
Spine 1.520941 -10.836607 10.332733
Head 2.868193 -0.179822 -4.694600
LeftShoulder -21.605384 14.978182 -8.000076
LeftArm 25.302633 -18.971598 -67.685584
LeftForeArm 3.912092 -0.000000 125.206538
LeftHand 2.222400 -0.000000 13.927405
LeftHandThumb1 -26.253704 0.000000 33.147579
RightShoulder -5.812476 -5.972088 -0.884857
RightArm 3.016918 -24.222018 72.642353
RightForeArm -16.380671 -0.000000 21.924383
RightHand 0.451172 -0.000000 -1.932655
RightHandThumb1 -24.326973 -0.000000 -32.862282
LeftUpLeg 11.149732 -1.983324 -1.531843
LeftLeg -8.125233 -0.000000 0.000000
LeftFoot -14.512714 29.370586 -4.104864
LeftToeBase 18.837283 -0.000000 -0.000000
RightUpLeg -6.171914 16.127478 8.487639
RightLeg 33.273381 -0.000000 -0.000000
RightFoot -19.425797 -19.243604 12.160544
RightToeBase -2.813799 -0.000000 0.000000
